<svg width="957" height="173" viewBox="0 0 957 173" fill="none" xmlns="http://www.w3.org/2000/svg">
<path d="M60.9091 78C61.1818 75 60.4545 72.6515 58.7273 70.9545C57 69.2273 54.0909 68.3636 50 68.3636C47.3939 68.3636 45.2121 68.6667 43.4545 69.2727C41.7273 69.8788 40.3788 70.7121 39.4091 71.7727C38.4697 72.8333 37.8788 74.0606 37.6364 75.4545C37.3636 76.5455 37.3788 77.5455 37.6818 78.4545C38.0152 79.3333 38.6364 80.1364 39.5455 80.8636C40.4849 81.5909 41.7121 82.2424 43.2273 82.8182C44.7727 83.3939 46.6061 83.9091 48.7273 84.3636L56 86C60.9697 87.0909 65.1364 88.5303 68.5 90.3182C71.8939 92.0758 74.5606 94.1667 76.5 96.5909C78.4394 99.0152 79.7121 101.727 80.3182 104.727C80.9545 107.727 80.9697 111 80.3636 114.545C79.3333 120.667 76.9545 125.848 73.2273 130.091C69.5 134.333 64.6364 137.561 58.6364 139.773C52.6364 141.985 45.697 143.091 37.8182 143.091C29.7576 143.091 22.9091 141.894 17.2727 139.5C11.6667 137.076 7.60606 133.379 5.09091 128.409C2.60606 123.409 2 117.03 3.27273 109.273H27.2727C26.9091 112.121 27.2121 114.515 28.1818 116.455C29.1515 118.394 30.7121 119.864 32.8636 120.864C35.0152 121.864 37.697 122.364 40.9091 122.364C43.6364 122.364 45.9697 122.03 47.9091 121.364C49.8485 120.697 51.3788 119.773 52.5 118.591C53.6212 117.409 54.303 116.061 54.5455 114.545C54.7879 113.152 54.5455 111.909 53.8182 110.818C53.0909 109.727 51.7727 108.742 49.8636 107.864C47.9545 106.985 45.3333 106.182 42 105.455L33.0909 103.455C25.1818 101.636 19.2121 98.6364 15.1818 94.4545C11.1515 90.2727 9.72727 84.5455 10.9091 77.2727C11.8788 71.3333 14.3182 66.1515 18.2273 61.7273C22.1667 57.2727 27.1667 53.8182 33.2273 51.3636C39.3182 48.8788 46.0606 47.6364 53.4545 47.6364C60.9697 47.6364 67.2576 48.8939 72.3182 51.4091C77.4091 53.9242 81.0606 57.4545 83.2727 62C85.5152 66.5455 86.1212 71.8788 85.0909 78H60.9091ZM105.989 142H78.7159L124.898 48.9091H159.443L174.716 142H147.443L138.352 74.5455H137.625L105.989 142ZM107.08 105.273H158.352L155.08 124.182H103.807L107.08 105.273ZM250.125 79.6364C250.004 78.0303 249.67 76.6212 249.125 75.4091C248.58 74.1667 247.807 73.1212 246.807 72.2727C245.807 71.3939 244.564 70.7424 243.08 70.3182C241.625 69.8636 239.913 69.6364 237.943 69.6364C233.701 69.6364 229.837 70.6515 226.352 72.6818C222.867 74.7121 219.943 77.6364 217.58 81.4545C215.246 85.2727 213.64 89.8788 212.761 95.2727C211.852 100.727 211.777 105.394 212.534 109.273C213.292 113.152 214.928 116.121 217.443 118.182C219.989 120.242 223.428 121.273 227.761 121.273C231.64 121.273 234.989 120.712 237.807 119.591C240.625 118.47 242.883 116.879 244.58 114.818C246.277 112.758 247.337 110.333 247.761 107.545L252.125 108H230.852L233.761 90H275.034L272.943 102.909C271.549 111.394 268.549 118.652 263.943 124.682C259.367 130.682 253.67 135.288 246.852 138.5C240.034 141.682 232.549 143.273 224.398 143.273C215.367 143.273 207.746 141.348 201.534 137.5C195.322 133.652 190.883 128.167 188.216 121.045C185.58 113.924 185.064 105.455 186.67 95.6364C187.943 87.9394 190.246 81.1212 193.58 75.1818C196.943 69.2424 201.049 64.2273 205.898 60.1364C210.746 56.0151 216.095 52.9091 221.943 50.8182C227.792 48.697 233.852 47.6364 240.125 47.6364C245.61 47.6364 250.595 48.4242 255.08 50C259.564 51.5455 263.398 53.7576 266.58 56.6364C269.761 59.4848 272.14 62.8636 273.716 66.7727C275.322 70.6818 275.973 74.9697 275.67 79.6364H250.125ZM375.818 97.0909C374.121 107.212 370.758 115.697 365.727 122.545C360.697 129.394 354.591 134.561 347.409 138.045C340.227 141.53 332.545 143.273 324.364 143.273C315.636 143.273 308.061 141.379 301.636 137.591C295.212 133.803 290.53 128.258 287.591 120.955C284.652 113.652 284.061 104.727 285.818 94.1818C287.455 84.0606 290.788 75.5455 295.818 68.6364C300.848 61.7273 306.985 56.5 314.227 52.9545C321.47 49.4091 329.212 47.6364 337.455 47.6364C346.121 47.6364 353.652 49.5455 360.045 53.3636C366.47 57.1818 371.136 62.7727 374.045 70.1364C376.985 77.5 377.576 86.4848 375.818 97.0909ZM350.364 94.1818C351.212 88.8485 351.273 84.3636 350.545 80.7273C349.818 77.0606 348.288 74.303 345.955 72.4545C343.621 70.5758 340.485 69.6364 336.545 69.6364C332.061 69.6364 328.091 70.7273 324.636 72.9091C321.182 75.0909 318.318 78.2273 316.045 82.3182C313.773 86.4091 312.182 91.3333 311.273 97.0909C310.303 102.485 310.212 106.97 311 110.545C311.818 114.121 313.424 116.803 315.818 118.591C318.242 120.379 321.394 121.273 325.273 121.273C329.697 121.273 333.606 120.212 337 118.091C340.424 115.97 343.258 112.894 345.5 108.864C347.773 104.833 349.394 99.9394 350.364 94.1818ZM380.057 142L395.511 48.9091H462.602L459.148 69.2727H417.33L414.784 85.2727H453.148L449.693 105.636H411.33L408.784 121.636H450.42L446.966 142H380.057ZM459.682 142L475.136 48.9091H500.409L488.409 121.636H526.045L522.591 142H459.682ZM650.216 48.9091L658.398 114.545H659.125L689.125 48.9091H717.67L671.489 142H636.943L621.67 48.9091H650.216ZM720.114 142H692.841L739.023 48.9091H773.568L788.841 142H761.568L752.477 74.5455H751.75L720.114 142ZM721.205 105.273H772.477L769.205 124.182H717.932L721.205 105.273ZM795.511 69.2727L798.966 48.9091H879.875L876.42 69.2727H848.42L836.42 142H811.511L823.511 69.2727H795.511ZM873.932 142L889.386 48.9091H956.477L953.023 69.2727H911.205L908.659 85.2727H947.023L943.568 105.636H905.205L902.659 121.636H944.295L940.841 142H873.932Z" fill="white"/>
<path d="M615 56L580 24C580 48 573.174 67 565 80M565 80C543.666 113.93 504 132 477 132H594M565 80L598 90" stroke="white" stroke-width="21"/>
</svg>
